ISO-10303-21;
HEADER;
/* Generated by software containing ST-Developer
 * from STEP Tools, Inc. (www.steptools.com) 
 */

FILE_DESCRIPTION(
/* description */ (''),
/* implementation_level */ '2;1');

FILE_NAME(
/* name */ 'top.step',
/* time_stamp */ '2026-08-29T20:16:51+01:00',
/* author */ (''),
/* organization */ (''),
/* preprocessor_version */ 'ST-DEVELOPER v20.1',
/* originating_system */ 'Autodesk Translation Framework v15.8.0.0',
/* authorisation */ '');

FILE_SCHEMA (('AUTOMOTIVE_DESIGN { 1 0 10303 214 3 1 1 }'));
ENDSEC;

DATA;
#10=MECHANICAL_DESIGN_GEOMETRIC_PRESENTATION_REPRESENTATION('',(#20,#21),
#905);
#11=CONTEXT_DEPENDENT_OVER_RIDING_STYLED_ITEM('',(#930),#916,#21,(#15));
#12=MAPPED_ITEM('',#13,#609);
#13=REPRESENTATION_MAP(#609,#915);
#14=ITEM_DEFINED_TRANSFORMATION($,$,#573,#608);
#15=(
REPRESENTATION_RELATIONSHIP($,$,#916,#915)
REPRESENTATION_RELATIONSHIP_WITH_TRANSFORMATION(#14)
SHAPE_REPRESENTATION_RELATIONSHIP()
);
#16=CONTEXT_DEPENDENT_SHAPE_REPRESENTATION(#15,#914);
#17=NEXT_ASSEMBLY_USAGE_OCCURRENCE('top:1','top:1','top:1',#918,#919,
'top:1');
#18=SHAPE_REPRESENTATION_RELATIONSHIP('SRR','None',#916,#19);
#19=ADVANCED_BREP_SHAPE_REPRESENTATION('',(#22),#904);
#20=STYLED_ITEM('',(#930),#22);
#21=STYLED_ITEM('',(#931),#12);
#22=MANIFOLD_SOLID_BREP('Body3',#559);
#23=FACE_BOUND('',#112,.T.);
#24=FACE_BOUND('',#113,.T.);
#25=FACE_BOUND('',#114,.T.);
#26=FACE_BOUND('',#115,.T.);
#27=FACE_BOUND('',#116,.T.);
#28=FACE_BOUND('',#117,.T.);
#29=FACE_BOUND('',#118,.T.);
#30=FACE_BOUND('',#119,.T.);
#31=FACE_BOUND('',#121,.T.);
#32=FACE_BOUND('',#122,.T.);
#33=FACE_BOUND('',#123,.T.);
#34=FACE_BOUND('',#124,.T.);
#35=FACE_BOUND('',#125,.T.);
#36=FACE_BOUND('',#126,.T.);
#37=FACE_BOUND('',#127,.T.);
#38=FACE_BOUND('',#128,.T.);
#39=PLANE('',#586);
#40=PLANE('',#587);
#41=PLANE('',#588);
#42=PLANE('',#589);
#43=PLANE('',#590);
#44=PLANE('',#591);
#45=PLANE('',#592);
#46=PLANE('',#593);
#47=PLANE('',#594);
#48=PLANE('',#595);
#49=PLANE('',#596);
#50=PLANE('',#597);
#51=PLANE('',#598);
#52=PLANE('',#599);
#53=PLANE('',#600);
#54=PLANE('',#601);
#55=PLANE('',#602);
#56=PLANE('',#603);
#57=PLANE('',#604);
#58=PLANE('',#605);
#59=PLANE('',#606);
#60=PLANE('',#607);
#61=FACE_OUTER_BOUND('',#87,.T.);
#62=FACE_OUTER_BOUND('',#88,.T.);
#63=FACE_OUTER_BOUND('',#89,.T.);
#64=FACE_OUTER_BOUND('',#90,.T.);
#65=FACE_OUTER_BOUND('',#91,.T.);
#66=FACE_OUTER_BOUND('',#92,.T.);
#67=FACE_OUTER_BOUND('',#93,.T.);
#68=FACE_OUTER_BOUND('',#94,.T.);
#69=FACE_OUTER_BOUND('',#95,.T.);
#70=FACE_OUTER_BOUND('',#96,.T.);
#71=FACE_OUTER_BOUND('',#97,.T.);
#72=FACE_OUTER_BOUND('',#98,.T.);
#73=FACE_OUTER_BOUND('',#99,.T.);
#74=FACE_OUTER_BOUND('',#100,.T.);
#75=FACE_OUTER_BOUND('',#101,.T.);
#76=FACE_OUTER_BOUND('',#102,.T.);
#77=FACE_OUTER_BOUND('',#103,.T.);
#78=FACE_OUTER_BOUND('',#104,.T.);
#79=FACE_OUTER_BOUND('',#105,.T.);
#80=FACE_OUTER_BOUND('',#106,.T.);
#81=FACE_OUTER_BOUND('',#107,.T.);
#82=FACE_OUTER_BOUND('',#108,.T.);
#83=FACE_OUTER_BOUND('',#109,.T.);
#84=FACE_OUTER_BOUND('',#110,.T.);
#85=FACE_OUTER_BOUND('',#111,.T.);
#86=FACE_OUTER_BOUND('',#120,.T.);
#87=EDGE_LOOP('',(#385,#386,#387,#388));
#88=EDGE_LOOP('',(#389,#390,#391,#392));
#89=EDGE_LOOP('',(#393,#394,#395,#396));
#90=EDGE_LOOP('',(#397,#398,#399,#400));
#91=EDGE_LOOP('',(#401,#402,#403,#404));
#92=EDGE_LOOP('',(#405,#406,#407,#408));
#93=EDGE_LOOP('',(#409,#410,#411,#412));
#94=EDGE_LOOP('',(#413,#414,#415,#416));
#95=EDGE_LOOP('',(#417,#418,#419,#420));
#96=EDGE_LOOP('',(#421,#422,#423,#424));
#97=EDGE_LOOP('',(#425,#426,#427,#428));
#98=EDGE_LOOP('',(#429,#430,#431,#432));
#99=EDGE_LOOP('',(#433,#434,#435,#436));
#100=EDGE_LOOP('',(#437,#438,#439,#440));
#101=EDGE_LOOP('',(#441,#442,#443,#444));
#102=EDGE_LOOP('',(#445,#446,#447,#448));
#103=EDGE_LOOP('',(#449,#450,#451,#452));
#104=EDGE_LOOP('',(#453,#454,#455,#456));
#105=EDGE_LOOP('',(#457,#458,#459,#460));
#106=EDGE_LOOP('',(#461,#462,#463,#464));
#107=EDGE_LOOP('',(#465,#466,#467,#468));
#108=EDGE_LOOP('',(#469,#470,#471,#472));
#109=EDGE_LOOP('',(#473,#474,#475,#476));
#110=EDGE_LOOP('',(#477,#478,#479,#480));
#111=EDGE_LOOP('',(#481,#482,#483,#484));
#112=EDGE_LOOP('',(#485,#486,#487,#488));
#113=EDGE_LOOP('',(#489,#490,#491,#492));
#114=EDGE_LOOP('',(#493,#494,#495,#496));
#115=EDGE_LOOP('',(#497,#498,#499,#500));
#116=EDGE_LOOP('',(#501));
#117=EDGE_LOOP('',(#502));
#118=EDGE_LOOP('',(#503));
#119=EDGE_LOOP('',(#504));
#120=EDGE_LOOP('',(#505,#506,#507,#508));
#121=EDGE_LOOP('',(#509,#510,#511,#512));
#122=EDGE_LOOP('',(#513,#514,#515,#516));
#123=EDGE_LOOP('',(#517,#518,#519,#520));
#124=EDGE_LOOP('',(#521,#522,#523,#524));
#125=EDGE_LOOP('',(#525));
#126=EDGE_LOOP('',(#526));
#127=EDGE_LOOP('',(#527));
#128=EDGE_LOOP('',(#528));
#129=LINE('',#756,#193);
#130=LINE('',#762,#194);
#131=LINE('',#768,#195);
#132=LINE('',#774,#196);
#133=LINE('',#779,#197);
#134=LINE('',#781,#198);
#135=LINE('',#783,#199);
#136=LINE('',#784,#200);
#137=LINE('',#787,#201);
#138=LINE('',#789,#202);
#139=LINE('',#790,#203);
#140=LINE('',#793,#204);
#141=LINE('',#795,#205);
#142=LINE('',#796,#206);
#143=LINE('',#798,#207);
#144=LINE('',#799,#208);
#145=LINE('',#803,#209);
#146=LINE('',#805,#210);
#147=LINE('',#807,#211);
#148=LINE('',#808,#212);
#149=LINE('',#811,#213);
#150=LINE('',#813,#214);
#151=LINE('',#814,#215);
#152=LINE('',#817,#216);
#153=LINE('',#819,#217);
#154=LINE('',#820,#218);
#155=LINE('',#822,#219);
#156=LINE('',#823,#220);
#157=LINE('',#827,#221);
#158=LINE('',#829,#222);
#159=LINE('',#831,#223);
#160=LINE('',#832,#224);
#161=LINE('',#835,#225);
#162=LINE('',#837,#226);
#163=LINE('',#838,#227);
#164=LINE('',#841,#228);
#165=LINE('',#843,#229);
#166=LINE('',#844,#230);
#167=LINE('',#846,#231);
#168=LINE('',#847,#232);
#169=LINE('',#851,#233);
#170=LINE('',#853,#234);
#171=LINE('',#855,#235);
#172=LINE('',#856,#236);
#173=LINE('',#859,#237);
#174=LINE('',#861,#238);
#175=LINE('',#862,#239);
#176=LINE('',#865,#240);
#177=LINE('',#867,#241);
#178=LINE('',#868,#242);
#179=LINE('',#870,#243);
#180=LINE('',#871,#244);
#181=LINE('',#875,#245);
#182=LINE('',#877,#246);
#183=LINE('',#879,#247);
#184=LINE('',#880,#248);
#185=LINE('',#883,#249);
#186=LINE('',#885,#250);
#187=LINE('',#886,#251);
#188=LINE('',#889,#252);
#189=LINE('',#891,#253);
#190=LINE('',#892,#254);
#191=LINE('',#894,#255);
#192=LINE('',#895,#256);
#193=VECTOR('',#618,2.);
#194=VECTOR('',#625,2.);
#195=VECTOR('',#632,2.);
#196=VECTOR('',#639,2.);
#197=VECTOR('',#644,10.);
#198=VECTOR('',#645,10.);
#199=VECTOR('',#646,10.);
#200=VECTOR('',#647,10.);
#201=VECTOR('',#650,10.);
#202=VECTOR('',#651,10.);
#203=VECTOR('',#652,10.);
#204=VECTOR('',#655,10.);
#205=VECTOR('',#656,10.);
#206=VECTOR('',#657,10.);
#207=VECTOR('',#660,10.);
#208=VECTOR('',#661,10.);
#209=VECTOR('',#664,10.);
#210=VECTOR('',#665,10.);
#211=VECTOR('',#666,10.);
#212=VECTOR('',#667,10.);
#213=VECTOR('',#670,10.);
#214=VECTOR('',#671,10.);
#215=VECTOR('',#672,10.);
#216=VECTOR('',#675,10.);
#217=VECTOR('',#676,10.);
#218=VECTOR('',#677,10.);
#219=VECTOR('',#680,10.);
#220=VECTOR('',#681,10.);
#221=VECTOR('',#684,10.);
#222=VECTOR('',#685,10.);
#223=VECTOR('',#686,10.);
#224=VECTOR('',#687,10.);
#225=VECTOR('',#690,10.);
#226=VECTOR('',#691,10.);
#227=VECTOR('',#692,10.);
#228=VECTOR('',#695,10.);
#229=VECTOR('',#696,10.);
#230=VECTOR('',#697,10.);
#231=VECTOR('',#700,10.);
#232=VECTOR('',#701,10.);
#233=VECTOR('',#704,10.);
#234=VECTOR('',#705,10.);
#235=VECTOR('',#706,10.);
#236=VECTOR('',#707,10.);
#237=VECTOR('',#710,10.);
#238=VECTOR('',#711,10.);
#239=VECTOR('',#712,10.);
#240=VECTOR('',#715,10.);
#241=VECTOR('',#716,10.);
#242=VECTOR('',#717,10.);
#243=VECTOR('',#720,10.);
#244=VECTOR('',#721,10.);
#245=VECTOR('',#724,10.);
#246=VECTOR('',#725,10.);
#247=VECTOR('',#726,10.);
#248=VECTOR('',#727,10.);
#249=VECTOR('',#730,10.);
#250=VECTOR('',#731,10.);
#251=VECTOR('',#732,10.);
#252=VECTOR('',#735,10.);
#253=VECTOR('',#736,10.);
#254=VECTOR('',#737,10.);
#255=VECTOR('',#740,10.);
#256=VECTOR('',#741,10.);
#257=CIRCLE('',#575,2.);
#258=CIRCLE('',#576,2.);
#259=CIRCLE('',#578,2.);
#260=CIRCLE('',#579,2.);
#261=CIRCLE('',#581,2.);
#262=CIRCLE('',#582,2.);
#263=CIRCLE('',#584,2.);
#264=CIRCLE('',#585,2.);
#265=VERTEX_POINT('',#753);
#266=VERTEX_POINT('',#755);
#267=VERTEX_POINT('',#759);
#268=VERTEX_POINT('',#761);
#269=VERTEX_POINT('',#765);
#270=VERTEX_POINT('',#767);
#271=VERTEX_POINT('',#771);
#272=VERTEX_POINT('',#773);
#273=VERTEX_POINT('',#777);
#274=VERTEX_POINT('',#778);
#275=VERTEX_POINT('',#780);
#276=VERTEX_POINT('',#782);
#277=VERTEX_POINT('',#786);
#278=VERTEX_POINT('',#788);
#279=VERTEX_POINT('',#792);
#280=VERTEX_POINT('',#794);
#281=VERTEX_POINT('',#801);
#282=VERTEX_POINT('',#802);
#283=VERTEX_POINT('',#804);
#284=VERTEX_POINT('',#806);
#285=VERTEX_POINT('',#810);
#286=VERTEX_POINT('',#812);
#287=VERTEX_POINT('',#816);
#288=VERTEX_POINT('',#818);
#289=VERTEX_POINT('',#825);
#290=VERTEX_POINT('',#826);
#291=VERTEX_POINT('',#828);
#292=VERTEX_POINT('',#830);
#293=VERTEX_POINT('',#834);
#294=VERTEX_POINT('',#836);
#295=VERTEX_POINT('',#840);
#296=VERTEX_POINT('',#842);
#297=VERTEX_POINT('',#849);
#298=VERTEX_POINT('',#850);
#299=VERTEX_POINT('',#852);
#300=VERTEX_POINT('',#854);
#301=VERTEX_POINT('',#858);
#302=VERTEX_POINT('',#860);
#303=VERTEX_POINT('',#864);
#304=VERTEX_POINT('',#866);
#305=VERTEX_POINT('',#873);
#306=VERTEX_POINT('',#874);
#307=VERTEX_POINT('',#876);
#308=VERTEX_POINT('',#878);
#309=VERTEX_POINT('',#882);
#310=VERTEX_POINT('',#884);
#311=VERTEX_POINT('',#888);
#312=VERTEX_POINT('',#890);
#313=EDGE_CURVE('',#265,#265,#257,.T.);
#314=EDGE_CURVE('',#265,#266,#129,.T.);
#315=EDGE_CURVE('',#266,#266,#258,.T.);
#316=EDGE_CURVE('',#267,#267,#259,.T.);
#317=EDGE_CURVE('',#267,#268,#130,.T.);
#318=EDGE_CURVE('',#268,#268,#260,.T.);
#319=EDGE_CURVE('',#269,#269,#261,.T.);
#320=EDGE_CURVE('',#269,#270,#131,.T.);
#321=EDGE_CURVE('',#270,#270,#262,.T.);
#322=EDGE_CURVE('',#271,#271,#263,.T.);
#323=EDGE_CURVE('',#271,#272,#132,.T.);
#324=EDGE_CURVE('',#272,#272,#264,.T.);
#325=EDGE_CURVE('',#273,#274,#133,.T.);
#326=EDGE_CURVE('',#274,#275,#134,.T.);
#327=EDGE_CURVE('',#276,#275,#135,.T.);
#328=EDGE_CURVE('',#273,#276,#136,.T.);
#329=EDGE_CURVE('',#277,#273,#137,.T.);
#330=EDGE_CURVE('',#278,#276,#138,.T.);
#331=EDGE_CURVE('',#277,#278,#139,.T.);
#332=EDGE_CURVE('',#279,#277,#140,.T.);
#333=EDGE_CURVE('',#280,#278,#141,.T.);
#334=EDGE_CURVE('',#279,#280,#142,.T.);
#335=EDGE_CURVE('',#274,#279,#143,.T.);
#336=EDGE_CURVE('',#275,#280,#144,.T.);
#337=EDGE_CURVE('',#281,#282,#145,.T.);
#338=EDGE_CURVE('',#282,#283,#146,.T.);
#339=EDGE_CURVE('',#284,#283,#147,.T.);
#340=EDGE_CURVE('',#281,#284,#148,.T.);
#341=EDGE_CURVE('',#285,#281,#149,.T.);
#342=EDGE_CURVE('',#286,#284,#150,.T.);
#343=EDGE_CURVE('',#285,#286,#151,.T.);
#344=EDGE_CURVE('',#287,#285,#152,.T.);
#345=EDGE_CURVE('',#288,#286,#153,.T.);
#346=EDGE_CURVE('',#287,#288,#154,.T.);
#347=EDGE_CURVE('',#282,#287,#155,.T.);
#348=EDGE_CURVE('',#283,#288,#156,.T.);
#349=EDGE_CURVE('',#289,#290,#157,.T.);
#350=EDGE_CURVE('',#290,#291,#158,.T.);
#351=EDGE_CURVE('',#292,#291,#159,.T.);
#352=EDGE_CURVE('',#289,#292,#160,.T.);
#353=EDGE_CURVE('',#293,#289,#161,.T.);
#354=EDGE_CURVE('',#294,#292,#162,.T.);
#355=EDGE_CURVE('',#293,#294,#163,.T.);
#356=EDGE_CURVE('',#295,#293,#164,.T.);
#357=EDGE_CURVE('',#296,#294,#165,.T.);
#358=EDGE_CURVE('',#295,#296,#166,.T.);
#359=EDGE_CURVE('',#290,#295,#167,.T.);
#360=EDGE_CURVE('',#291,#296,#168,.T.);
#361=EDGE_CURVE('',#297,#298,#169,.T.);
#362=EDGE_CURVE('',#298,#299,#170,.T.);
#363=EDGE_CURVE('',#300,#299,#171,.T.);
#364=EDGE_CURVE('',#297,#300,#172,.T.);
#365=EDGE_CURVE('',#301,#297,#173,.T.);
#366=EDGE_CURVE('',#302,#300,#174,.T.);
#367=EDGE_CURVE('',#301,#302,#175,.T.);
#368=EDGE_CURVE('',#303,#301,#176,.T.);
#369=EDGE_CURVE('',#304,#302,#177,.T.);
#370=EDGE_CURVE('',#303,#304,#178,.T.);
#371=EDGE_CURVE('',#298,#303,#179,.T.);
#372=EDGE_CURVE('',#299,#304,#180,.T.);
#373=EDGE_CURVE('',#305,#306,#181,.T.);
#374=EDGE_CURVE('',#306,#307,#182,.T.);
#375=EDGE_CURVE('',#308,#307,#183,.T.);
#376=EDGE_CURVE('',#305,#308,#184,.T.);
#377=EDGE_CURVE('',#309,#305,#185,.T.);
#378=EDGE_CURVE('',#310,#308,#186,.T.);
#379=EDGE_CURVE('',#309,#310,#187,.T.);
#380=EDGE_CURVE('',#311,#309,#188,.T.);
#381=EDGE_CURVE('',#312,#310,#189,.T.);
#382=EDGE_CURVE('',#311,#312,#190,.T.);
#383=EDGE_CURVE('',#306,#311,#191,.T.);
#384=EDGE_CURVE('',#307,#312,#192,.T.);
#385=ORIENTED_EDGE('',*,*,#313,.F.);
#386=ORIENTED_EDGE('',*,*,#314,.T.);
#387=ORIENTED_EDGE('',*,*,#315,.F.);
#388=ORIENTED_EDGE('',*,*,#314,.F.);
#389=ORIENTED_EDGE('',*,*,#316,.F.);
#390=ORIENTED_EDGE('',*,*,#317,.T.);
#391=ORIENTED_EDGE('',*,*,#318,.F.);
#392=ORIENTED_EDGE('',*,*,#317,.F.);
#393=ORIENTED_EDGE('',*,*,#319,.F.);
#394=ORIENTED_EDGE('',*,*,#320,.T.);
#395=ORIENTED_EDGE('',*,*,#321,.F.);
#396=ORIENTED_EDGE('',*,*,#320,.F.);
#397=ORIENTED_EDGE('',*,*,#322,.F.);
#398=ORIENTED_EDGE('',*,*,#323,.T.);
#399=ORIENTED_EDGE('',*,*,#324,.F.);
#400=ORIENTED_EDGE('',*,*,#323,.F.);
#401=ORIENTED_EDGE('',*,*,#325,.T.);
#402=ORIENTED_EDGE('',*,*,#326,.T.);
#403=ORIENTED_EDGE('',*,*,#327,.F.);
#404=ORIENTED_EDGE('',*,*,#328,.F.);
#405=ORIENTED_EDGE('',*,*,#329,.T.);
#406=ORIENTED_EDGE('',*,*,#328,.T.);
#407=ORIENTED_EDGE('',*,*,#330,.F.);
#408=ORIENTED_EDGE('',*,*,#331,.F.);
#409=ORIENTED_EDGE('',*,*,#332,.T.);
#410=ORIENTED_EDGE('',*,*,#331,.T.);
#411=ORIENTED_EDGE('',*,*,#333,.F.);
#412=ORIENTED_EDGE('',*,*,#334,.F.);
#413=ORIENTED_EDGE('',*,*,#335,.T.);
#414=ORIENTED_EDGE('',*,*,#334,.T.);
#415=ORIENTED_EDGE('',*,*,#336,.F.);
#416=ORIENTED_EDGE('',*,*,#326,.F.);
#417=ORIENTED_EDGE('',*,*,#337,.T.);
#418=ORIENTED_EDGE('',*,*,#338,.T.);
#419=ORIENTED_EDGE('',*,*,#339,.F.);
#420=ORIENTED_EDGE('',*,*,#340,.F.);
#421=ORIENTED_EDGE('',*,*,#341,.T.);
#422=ORIENTED_EDGE('',*,*,#340,.T.);
#423=ORIENTED_EDGE('',*,*,#342,.F.);
#424=ORIENTED_EDGE('',*,*,#343,.F.);
#425=ORIENTED_EDGE('',*,*,#344,.T.);
#426=ORIENTED_EDGE('',*,*,#343,.T.);
#427=ORIENTED_EDGE('',*,*,#345,.F.);
#428=ORIENTED_EDGE('',*,*,#346,.F.);
#429=ORIENTED_EDGE('',*,*,#347,.T.);
#430=ORIENTED_EDGE('',*,*,#346,.T.);
#431=ORIENTED_EDGE('',*,*,#348,.F.);
#432=ORIENTED_EDGE('',*,*,#338,.F.);
#433=ORIENTED_EDGE('',*,*,#349,.T.);
#434=ORIENTED_EDGE('',*,*,#350,.T.);
#435=ORIENTED_EDGE('',*,*,#351,.F.);
#436=ORIENTED_EDGE('',*,*,#352,.F.);
#437=ORIENTED_EDGE('',*,*,#353,.T.);
#438=ORIENTED_EDGE('',*,*,#352,.T.);
#439=ORIENTED_EDGE('',*,*,#354,.F.);
#440=ORIENTED_EDGE('',*,*,#355,.F.);
#441=ORIENTED_EDGE('',*,*,#356,.T.);
#442=ORIENTED_EDGE('',*,*,#355,.T.);
#443=ORIENTED_EDGE('',*,*,#357,.F.);
#444=ORIENTED_EDGE('',*,*,#358,.F.);
#445=ORIENTED_EDGE('',*,*,#359,.T.);
#446=ORIENTED_EDGE('',*,*,#358,.T.);
#447=ORIENTED_EDGE('',*,*,#360,.F.);
#448=ORIENTED_EDGE('',*,*,#350,.F.);
#449=ORIENTED_EDGE('',*,*,#361,.T.);
#450=ORIENTED_EDGE('',*,*,#362,.T.);
#451=ORIENTED_EDGE('',*,*,#363,.F.);
#452=ORIENTED_EDGE('',*,*,#364,.F.);
#453=ORIENTED_EDGE('',*,*,#365,.T.);
#454=ORIENTED_EDGE('',*,*,#364,.T.);
#455=ORIENTED_EDGE('',*,*,#366,.F.);
#456=ORIENTED_EDGE('',*,*,#367,.F.);
#457=ORIENTED_EDGE('',*,*,#368,.T.);
#458=ORIENTED_EDGE('',*,*,#367,.T.);
#459=ORIENTED_EDGE('',*,*,#369,.F.);
#460=ORIENTED_EDGE('',*,*,#370,.F.);
#461=ORIENTED_EDGE('',*,*,#371,.T.);
#462=ORIENTED_EDGE('',*,*,#370,.T.);
#463=ORIENTED_EDGE('',*,*,#372,.F.);
#464=ORIENTED_EDGE('',*,*,#362,.F.);
#465=ORIENTED_EDGE('',*,*,#373,.T.);
#466=ORIENTED_EDGE('',*,*,#374,.T.);
#467=ORIENTED_EDGE('',*,*,#375,.F.);
#468=ORIENTED_EDGE('',*,*,#376,.F.);
#469=ORIENTED_EDGE('',*,*,#377,.T.);
#470=ORIENTED_EDGE('',*,*,#376,.T.);
#471=ORIENTED_EDGE('',*,*,#378,.F.);
#472=ORIENTED_EDGE('',*,*,#379,.F.);
#473=ORIENTED_EDGE('',*,*,#380,.T.);
#474=ORIENTED_EDGE('',*,*,#379,.T.);
#475=ORIENTED_EDGE('',*,*,#381,.F.);
#476=ORIENTED_EDGE('',*,*,#382,.F.);
#477=ORIENTED_EDGE('',*,*,#383,.T.);
#478=ORIENTED_EDGE('',*,*,#382,.T.);
#479=ORIENTED_EDGE('',*,*,#384,.F.);
#480=ORIENTED_EDGE('',*,*,#374,.F.);
#481=ORIENTED_EDGE('',*,*,#384,.T.);
#482=ORIENTED_EDGE('',*,*,#381,.T.);
#483=ORIENTED_EDGE('',*,*,#378,.T.);
#484=ORIENTED_EDGE('',*,*,#375,.T.);
#485=ORIENTED_EDGE('',*,*,#336,.T.);
#486=ORIENTED_EDGE('',*,*,#333,.T.);
#487=ORIENTED_EDGE('',*,*,#330,.T.);
#488=ORIENTED_EDGE('',*,*,#327,.T.);
#489=ORIENTED_EDGE('',*,*,#348,.T.);
#490=ORIENTED_EDGE('',*,*,#345,.T.);
#491=ORIENTED_EDGE('',*,*,#342,.T.);
#492=ORIENTED_EDGE('',*,*,#339,.T.);
#493=ORIENTED_EDGE('',*,*,#360,.T.);
#494=ORIENTED_EDGE('',*,*,#357,.T.);
#495=ORIENTED_EDGE('',*,*,#354,.T.);
#496=ORIENTED_EDGE('',*,*,#351,.T.);
#497=ORIENTED_EDGE('',*,*,#372,.T.);
#498=ORIENTED_EDGE('',*,*,#369,.T.);
#499=ORIENTED_EDGE('',*,*,#366,.T.);
#500=ORIENTED_EDGE('',*,*,#363,.T.);
#501=ORIENTED_EDGE('',*,*,#322,.T.);
#502=ORIENTED_EDGE('',*,*,#319,.T.);
#503=ORIENTED_EDGE('',*,*,#316,.T.);
#504=ORIENTED_EDGE('',*,*,#313,.T.);
#505=ORIENTED_EDGE('',*,*,#383,.F.);
#506=ORIENTED_EDGE('',*,*,#373,.F.);
#507=ORIENTED_EDGE('',*,*,#377,.F.);
#508=ORIENTED_EDGE('',*,*,#380,.F.);
#509=ORIENTED_EDGE('',*,*,#335,.F.);
#510=ORIENTED_EDGE('',*,*,#325,.F.);
#511=ORIENTED_EDGE('',*,*,#329,.F.);
#512=ORIENTED_EDGE('',*,*,#332,.F.);
#513=ORIENTED_EDGE('',*,*,#347,.F.);
#514=ORIENTED_EDGE('',*,*,#337,.F.);
#515=ORIENTED_EDGE('',*,*,#341,.F.);
#516=ORIENTED_EDGE('',*,*,#344,.F.);
#517=ORIENTED_EDGE('',*,*,#359,.F.);
#518=ORIENTED_EDGE('',*,*,#349,.F.);
#519=ORIENTED_EDGE('',*,*,#353,.F.);
#520=ORIENTED_EDGE('',*,*,#356,.F.);
#521=ORIENTED_EDGE('',*,*,#371,.F.);
#522=ORIENTED_EDGE('',*,*,#361,.F.);
#523=ORIENTED_EDGE('',*,*,#365,.F.);
#524=ORIENTED_EDGE('',*,*,#368,.F.);
#525=ORIENTED_EDGE('',*,*,#324,.T.);
#526=ORIENTED_EDGE('',*,*,#321,.T.);
#527=ORIENTED_EDGE('',*,*,#318,.T.);
#528=ORIENTED_EDGE('',*,*,#315,.T.);
#529=CYLINDRICAL_SURFACE('',#574,2.);
#530=CYLINDRICAL_SURFACE('',#577,2.);
#531=CYLINDRICAL_SURFACE('',#580,2.);
#532=CYLINDRICAL_SURFACE('',#583,2.);
#533=ADVANCED_FACE('',(#61),#529,.F.);
#534=ADVANCED_FACE('',(#62),#530,.F.);
#535=ADVANCED_FACE('',(#63),#531,.F.);
#536=ADVANCED_FACE('',(#64),#532,.F.);
#537=ADVANCED_FACE('',(#65),#39,.T.);
#538=ADVANCED_FACE('',(#66),#40,.T.);
#539=ADVANCED_FACE('',(#67),#41,.T.);
#540=ADVANCED_FACE('',(#68),#42,.T.);
#541=ADVANCED_FACE('',(#69),#43,.T.);
#542=ADVANCED_FACE('',(#70),#44,.T.);
#543=ADVANCED_FACE('',(#71),#45,.T.);
#544=ADVANCED_FACE('',(#72),#46,.T.);
#545=ADVANCED_FACE('',(#73),#47,.T.);
#546=ADVANCED_FACE('',(#74),#48,.T.);
#547=ADVANCED_FACE('',(#75),#49,.T.);
#548=ADVANCED_FACE('',(#76),#50,.T.);
#549=ADVANCED_FACE('',(#77),#51,.T.);
#550=ADVANCED_FACE('',(#78),#52,.T.);
#551=ADVANCED_FACE('',(#79),#53,.T.);
#552=ADVANCED_FACE('',(#80),#54,.T.);
#553=ADVANCED_FACE('',(#81),#55,.T.);
#554=ADVANCED_FACE('',(#82),#56,.T.);
#555=ADVANCED_FACE('',(#83),#57,.T.);
#556=ADVANCED_FACE('',(#84),#58,.T.);
#557=ADVANCED_FACE('',(#85,#23,#24,#25,#26,#27,#28,#29,#30),#59,.T.);
#558=ADVANCED_FACE('',(#86,#31,#32,#33,#34,#35,#36,#37,#38),#60,.F.);
#559=CLOSED_SHELL('',(#533,#534,#535,#536,#537,#538,#539,#540,#541,#542,
#543,#544,#545,#546,#547,#548,#549,#550,#551,#552,#553,#554,#555,#556,#557,
#558));
#560=DERIVED_UNIT_ELEMENT(#562,1.);
#561=DERIVED_UNIT_ELEMENT(#907,-3.);
#562=(
MASS_UNIT()
NAMED_UNIT(*)
SI_UNIT(.KILO.,.GRAM.)
);
#563=DERIVED_UNIT((#560,#561));
#564=MEASURE_REPRESENTATION_ITEM('density measure',
POSITIVE_RATIO_MEASURE(7850.),#563);
#565=PROPERTY_DEFINITION_REPRESENTATION(#570,#567);
#566=PROPERTY_DEFINITION_REPRESENTATION(#571,#568);
#567=REPRESENTATION('material name',(#569),#904);
#568=REPRESENTATION('density',(#564),#904);
#569=DESCRIPTIVE_REPRESENTATION_ITEM('Steel','Steel');
#570=PROPERTY_DEFINITION('material property','material name',#919);
#571=PROPERTY_DEFINITION('material property','density of part',#919);
#572=AXIS2_PLACEMENT_3D('',#750,#610,#611);
#573=AXIS2_PLACEMENT_3D('',#751,#612,#613);
#574=AXIS2_PLACEMENT_3D('',#752,#614,#615);
#575=AXIS2_PLACEMENT_3D('',#754,#616,#617);
#576=AXIS2_PLACEMENT_3D('',#757,#619,#620);
#577=AXIS2_PLACEMENT_3D('',#758,#621,#622);
#578=AXIS2_PLACEMENT_3D('',#760,#623,#624);
#579=AXIS2_PLACEMENT_3D('',#763,#626,#627);
#580=AXIS2_PLACEMENT_3D('',#764,#628,#629);
#581=AXIS2_PLACEMENT_3D('',#766,#630,#631);
#582=AXIS2_PLACEMENT_3D('',#769,#633,#634);
#583=AXIS2_PLACEMENT_3D('',#770,#635,#636);
#584=AXIS2_PLACEMENT_3D('',#772,#637,#638);
#585=AXIS2_PLACEMENT_3D('',#775,#640,#641);
#586=AXIS2_PLACEMENT_3D('',#776,#642,#643);
#587=AXIS2_PLACEMENT_3D('',#785,#648,#649);
#588=AXIS2_PLACEMENT_3D('',#791,#653,#654);
#589=AXIS2_PLACEMENT_3D('',#797,#658,#659);
#590=AXIS2_PLACEMENT_3D('',#800,#662,#663);
#591=AXIS2_PLACEMENT_3D('',#809,#668,#669);
#592=AXIS2_PLACEMENT_3D('',#815,#673,#674);
#593=AXIS2_PLACEMENT_3D('',#821,#678,#679);
#594=AXIS2_PLACEMENT_3D('',#824,#682,#683);
#595=AXIS2_PLACEMENT_3D('',#833,#688,#689);
#596=AXIS2_PLACEMENT_3D('',#839,#693,#694);
#597=AXIS2_PLACEMENT_3D('',#845,#698,#699);
#598=AXIS2_PLACEMENT_3D('',#848,#702,#703);
#599=AXIS2_PLACEMENT_3D('',#857,#708,#709);
#600=AXIS2_PLACEMENT_3D('',#863,#713,#714);
#601=AXIS2_PLACEMENT_3D('',#869,#718,#719);
#602=AXIS2_PLACEMENT_3D('',#872,#722,#723);
#603=AXIS2_PLACEMENT_3D('',#881,#728,#729);
#604=AXIS2_PLACEMENT_3D('',#887,#733,#734);
#605=AXIS2_PLACEMENT_3D('',#893,#738,#739);
#606=AXIS2_PLACEMENT_3D('',#896,#742,#743);
#607=AXIS2_PLACEMENT_3D('',#897,#744,#745);
#608=AXIS2_PLACEMENT_3D('',#898,#746,#747);
#609=AXIS2_PLACEMENT_3D('',#899,#748,#749);
#610=DIRECTION('axis',(0.,0.,1.));
#611=DIRECTION('refdir',(1.,0.,0.));
#612=DIRECTION('axis',(0.,0.,1.));
#613=DIRECTION('refdir',(1.,0.,0.));
#614=DIRECTION('center_axis',(0.,0.,-1.));
#615=DIRECTION('ref_axis',(1.,0.,0.));
#616=DIRECTION('center_axis',(0.,0.,-1.));
#617=DIRECTION('ref_axis',(1.,0.,0.));
#618=DIRECTION('',(0.,0.,-1.));
#619=DIRECTION('center_axis',(0.,0.,1.));
#620=DIRECTION('ref_axis',(1.,0.,0.));
#621=DIRECTION('center_axis',(0.,0.,-1.));
#622=DIRECTION('ref_axis',(1.,0.,0.));
#623=DIRECTION('center_axis',(0.,0.,-1.));
#624=DIRECTION('ref_axis',(1.,0.,0.));
#625=DIRECTION('',(0.,0.,-1.));
#626=DIRECTION('center_axis',(0.,0.,1.));
#627=DIRECTION('ref_axis',(1.,0.,0.));
#628=DIRECTION('center_axis',(0.,0.,-1.));
#629=DIRECTION('ref_axis',(1.,0.,0.));
#630=DIRECTION('center_axis',(0.,0.,-1.));
#631=DIRECTION('ref_axis',(1.,0.,0.));
#632=DIRECTION('',(0.,0.,-1.));
#633=DIRECTION('center_axis',(0.,0.,1.));
#634=DIRECTION('ref_axis',(1.,0.,0.));
#635=DIRECTION('center_axis',(0.,0.,-1.));
#636=DIRECTION('ref_axis',(1.,0.,0.));
#637=DIRECTION('center_axis',(0.,0.,-1.));
#638=DIRECTION('ref_axis',(1.,0.,0.));
#639=DIRECTION('',(0.,0.,-1.));
#640=DIRECTION('center_axis',(0.,0.,1.));
#641=DIRECTION('ref_axis',(1.,0.,0.));
#642=DIRECTION('center_axis',(0.,1.,0.));
#643=DIRECTION('ref_axis',(-1.,0.,0.));
#644=DIRECTION('',(-1.,0.,0.));
#645=DIRECTION('',(0.,0.,1.));
#646=DIRECTION('',(-1.,0.,0.));
#647=DIRECTION('',(0.,0.,1.));
#648=DIRECTION('center_axis',(-1.,0.,0.));
#649=DIRECTION('ref_axis',(0.,-1.,0.));
#650=DIRECTION('',(0.,-1.,0.));
#651=DIRECTION('',(0.,-1.,0.));
#652=DIRECTION('',(0.,0.,1.));
#653=DIRECTION('center_axis',(0.,-1.,0.));
#654=DIRECTION('ref_axis',(1.,0.,0.));
#655=DIRECTION('',(1.,0.,0.));
#656=DIRECTION('',(1.,0.,0.));
#657=DIRECTION('',(0.,0.,1.));
#658=DIRECTION('center_axis',(1.,0.,0.));
#659=DIRECTION('ref_axis',(0.,1.,0.));
#660=DIRECTION('',(0.,1.,0.));
#661=DIRECTION('',(0.,1.,0.));
#662=DIRECTION('center_axis',(0.,1.,0.));
#663=DIRECTION('ref_axis',(-1.,0.,0.));
#664=DIRECTION('',(-1.,0.,0.));
#665=DIRECTION('',(0.,0.,1.));
#666=DIRECTION('',(-1.,0.,0.));
#667=DIRECTION('',(0.,0.,1.));
#668=DIRECTION('center_axis',(-1.,0.,0.));
#669=DIRECTION('ref_axis',(0.,-1.,0.));
#670=DIRECTION('',(0.,-1.,0.));
#671=DIRECTION('',(0.,-1.,0.));
#672=DIRECTION('',(0.,0.,1.));
#673=DIRECTION('center_axis',(0.,-1.,0.));
#674=DIRECTION('ref_axis',(1.,0.,0.));
#675=DIRECTION('',(1.,0.,0.));
#676=DIRECTION('',(1.,0.,0.));
#677=DIRECTION('',(0.,0.,1.));
#678=DIRECTION('center_axis',(1.,0.,0.));
#679=DIRECTION('ref_axis',(0.,1.,0.));
#680=DIRECTION('',(0.,1.,0.));
#681=DIRECTION('',(0.,1.,0.));
#682=DIRECTION('center_axis',(0.,1.,0.));
#683=DIRECTION('ref_axis',(-1.,0.,0.));
#684=DIRECTION('',(-1.,0.,0.));
#685=DIRECTION('',(0.,0.,1.));
#686=DIRECTION('',(-1.,0.,0.));
#687=DIRECTION('',(0.,0.,1.));
#688=DIRECTION('center_axis',(-1.,0.,0.));
#689=DIRECTION('ref_axis',(0.,-1.,0.));
#690=DIRECTION('',(0.,-1.,0.));
#691=DIRECTION('',(0.,-1.,0.));
#692=DIRECTION('',(0.,0.,1.));
#693=DIRECTION('center_axis',(0.,-1.,0.));
#694=DIRECTION('ref_axis',(1.,0.,0.));
#695=DIRECTION('',(1.,0.,0.));
#696=DIRECTION('',(1.,0.,0.));
#697=DIRECTION('',(0.,0.,1.));
#698=DIRECTION('center_axis',(1.,0.,0.));
#699=DIRECTION('ref_axis',(0.,1.,0.));
#700=DIRECTION('',(0.,1.,0.));
#701=DIRECTION('',(0.,1.,0.));
#702=DIRECTION('center_axis',(0.,1.,0.));
#703=DIRECTION('ref_axis',(-1.,0.,0.));
#704=DIRECTION('',(-1.,0.,0.));
#705=DIRECTION('',(0.,0.,1.));
#706=DIRECTION('',(-1.,0.,0.));
#707=DIRECTION('',(0.,0.,1.));
#708=DIRECTION('center_axis',(-1.,0.,0.));
#709=DIRECTION('ref_axis',(0.,-1.,0.));
#710=DIRECTION('',(0.,-1.,0.));
#711=DIRECTION('',(0.,-1.,0.));
#712=DIRECTION('',(0.,0.,1.));
#713=DIRECTION('center_axis',(0.,-1.,0.));
#714=DIRECTION('ref_axis',(1.,0.,0.));
#715=DIRECTION('',(1.,0.,0.));
#716=DIRECTION('',(1.,0.,0.));
#717=DIRECTION('',(0.,0.,1.));
#718=DIRECTION('center_axis',(1.,0.,0.));
#719=DIRECTION('ref_axis',(0.,1.,0.));
#720=DIRECTION('',(0.,1.,0.));
#721=DIRECTION('',(0.,1.,0.));
#722=DIRECTION('center_axis',(0.,1.,0.));
#723=DIRECTION('ref_axis',(-1.,0.,0.));
#724=DIRECTION('',(-1.,0.,0.));
#725=DIRECTION('',(0.,0.,1.));
#726=DIRECTION('',(-1.,0.,0.));
#727=DIRECTION('',(0.,0.,1.));
#728=DIRECTION('center_axis',(1.,0.,0.));
#729=DIRECTION('ref_axis',(0.,1.,0.));
#730=DIRECTION('',(0.,1.,0.));
#731=DIRECTION('',(0.,1.,0.));
#732=DIRECTION('',(0.,0.,1.));
#733=DIRECTION('center_axis',(0.,-1.,0.));
#734=DIRECTION('ref_axis',(1.,0.,0.));
#735=DIRECTION('',(1.,0.,0.));
#736=DIRECTION('',(1.,0.,0.));
#737=DIRECTION('',(0.,0.,1.));
#738=DIRECTION('center_axis',(-1.,0.,0.));
#739=DIRECTION('ref_axis',(0.,-1.,0.));
#740=DIRECTION('',(0.,-1.,0.));
#741=DIRECTION('',(0.,-1.,0.));
#742=DIRECTION('center_axis',(0.,0.,1.));
#743=DIRECTION('ref_axis',(1.,0.,0.));
#744=DIRECTION('center_axis',(0.,0.,1.));
#745=DIRECTION('ref_axis',(1.,0.,0.));
#746=DIRECTION('',(0.,0.,1.));
#747=DIRECTION('',(1.,0.,0.));
#748=DIRECTION('center_axis',(0.,0.,1.));
#749=DIRECTION('ref_axis',(1.,0.,0.));
#750=CARTESIAN_POINT('',(0.,0.,0.));
#751=CARTESIAN_POINT('',(0.,0.,0.));
#752=CARTESIAN_POINT('Origin',(4.42460614589489,61.5744532958916,-7.));
#753=CARTESIAN_POINT('',(2.42460614589489,61.5744532958916,3.));
#754=CARTESIAN_POINT('Origin',(4.42460614589489,61.5744532958916,3.));
#755=CARTESIAN_POINT('',(2.42460614589489,61.5744532958916,0.));
#756=CARTESIAN_POINT('',(2.42460614589489,61.5744532958916,-7.));
#757=CARTESIAN_POINT('Origin',(4.42460614589489,61.5744532958916,0.));
#758=CARTESIAN_POINT('Origin',(108.86375899596,62.6089852863007,-7.));
#759=CARTESIAN_POINT('',(106.86375899596,62.6089852863007,3.));
#760=CARTESIAN_POINT('Origin',(108.86375899596,62.6089852863007,3.));
#761=CARTESIAN_POINT('',(106.86375899596,62.6089852863007,0.));
#762=CARTESIAN_POINT('',(106.86375899596,62.6089852863007,-7.));
#763=CARTESIAN_POINT('Origin',(108.86375899596,62.6089852863007,0.));
#764=CARTESIAN_POINT('Origin',(108.716007700129,4.54477101564407,-7.));
#765=CARTESIAN_POINT('',(106.716007700129,4.54477101564407,3.));
#766=CARTESIAN_POINT('Origin',(108.716007700129,4.54477101564407,3.));
#767=CARTESIAN_POINT('',(106.716007700129,4.54477101564407,0.));
#768=CARTESIAN_POINT('',(106.716007700129,4.54477101564407,-7.));
#769=CARTESIAN_POINT('Origin',(108.716007700129,4.54477101564407,0.));
#770=CARTESIAN_POINT('Origin',(3.95676187778258,4.47481468015746,-7.));
#771=CARTESIAN_POINT('',(1.95676187778258,4.47481468015746,3.));
#772=CARTESIAN_POINT('Origin',(3.95676187778258,4.47481468015746,3.));
#773=CARTESIAN_POINT('',(1.95676187778258,4.47481468015746,0.));
#774=CARTESIAN_POINT('',(1.95676187778258,4.47481468015746,-7.));
#775=CARTESIAN_POINT('Origin',(3.95676187778258,4.47481468015746,0.));
#776=CARTESIAN_POINT('Origin',(55.3686814124635,21.0970270594801,0.));
#777=CARTESIAN_POINT('',(55.3686814124635,21.0970270594801,0.));
#778=CARTESIAN_POINT('',(40.3686814124635,21.0970270594801,0.));
#779=CARTESIAN_POINT('',(40.3686814124635,21.0970270594801,0.));
#780=CARTESIAN_POINT('',(40.3686814124635,21.0970270594801,3.));
#781=CARTESIAN_POINT('',(40.3686814124635,21.0970270594801,0.));
#782=CARTESIAN_POINT('',(55.3686814124635,21.0970270594801,3.));
#783=CARTESIAN_POINT('',(40.3686814124635,21.0970270594801,3.));
#784=CARTESIAN_POINT('',(55.3686814124635,21.0970270594801,0.));
#785=CARTESIAN_POINT('Origin',(55.3686814124635,36.0970270594801,0.));
#786=CARTESIAN_POINT('',(55.3686814124635,36.0970270594801,0.));
#787=CARTESIAN_POINT('',(55.3686814124635,21.0970270594801,0.));
#788=CARTESIAN_POINT('',(55.3686814124635,36.0970270594801,3.));
#789=CARTESIAN_POINT('',(55.3686814124635,21.0970270594801,3.));
#790=CARTESIAN_POINT('',(55.3686814124635,36.0970270594801,0.));
#791=CARTESIAN_POINT('Origin',(40.3686814124635,36.0970270594801,0.));
#792=CARTESIAN_POINT('',(40.3686814124635,36.0970270594801,0.));
#793=CARTESIAN_POINT('',(55.3686814124635,36.0970270594801,0.));
#794=CARTESIAN_POINT('',(40.3686814124635,36.0970270594801,3.));
#795=CARTESIAN_POINT('',(55.3686814124635,36.0970270594801,3.));
#796=CARTESIAN_POINT('',(40.3686814124635,36.0970270594801,0.));
#797=CARTESIAN_POINT('Origin',(40.3686814124635,21.0970270594801,0.));
#798=CARTESIAN_POINT('',(40.3686814124635,36.0970270594801,0.));
#799=CARTESIAN_POINT('',(40.3686814124635,36.0970270594801,3.));
#800=CARTESIAN_POINT('Origin',(74.0000011026859,21.0000003129244,0.));
#801=CARTESIAN_POINT('',(74.0000011026859,21.0000003129244,0.));
#802=CARTESIAN_POINT('',(59.0000008791685,21.0000003129244,0.));
#803=CARTESIAN_POINT('',(59.0000008791685,21.0000003129244,0.));
#804=CARTESIAN_POINT('',(59.0000008791685,21.0000003129244,3.));
#805=CARTESIAN_POINT('',(59.0000008791685,21.0000003129244,0.));
#806=CARTESIAN_POINT('',(74.0000011026859,21.0000003129244,3.));
#807=CARTESIAN_POINT('',(59.0000008791685,21.0000003129244,3.));
#808=CARTESIAN_POINT('',(74.0000011026859,21.0000003129244,0.));
#809=CARTESIAN_POINT('Origin',(74.0000011026859,36.0000005364418,0.));
#810=CARTESIAN_POINT('',(74.0000011026859,36.0000005364418,0.));
#811=CARTESIAN_POINT('',(74.0000011026859,21.0000003129244,0.));
#812=CARTESIAN_POINT('',(74.0000011026859,36.0000005364418,3.));
#813=CARTESIAN_POINT('',(74.0000011026859,21.0000003129244,3.));
#814=CARTESIAN_POINT('',(74.0000011026859,36.0000005364418,0.));
#815=CARTESIAN_POINT('Origin',(59.0000008791685,36.0000005364418,0.));
#816=CARTESIAN_POINT('',(59.0000008791685,36.0000005364418,0.));
#817=CARTESIAN_POINT('',(74.0000011026859,36.0000005364418,0.));
#818=CARTESIAN_POINT('',(59.0000008791685,36.0000005364418,3.));
#819=CARTESIAN_POINT('',(74.0000011026859,36.0000005364418,3.));
#820=CARTESIAN_POINT('',(59.0000008791685,36.0000005364418,0.));
#821=CARTESIAN_POINT('Origin',(59.0000008791685,21.0000003129244,0.));
#822=CARTESIAN_POINT('',(59.0000008791685,36.0000005364418,0.));
#823=CARTESIAN_POINT('',(59.0000008791685,36.0000005364418,3.));
#824=CARTESIAN_POINT('Origin',(93.2856196624736,21.3534701201081,0.));
#825=CARTESIAN_POINT('',(93.2856196624736,21.3534701201081,0.));
#826=CARTESIAN_POINT('',(78.2856196624736,21.3534701201081,0.));
#827=CARTESIAN_POINT('',(78.2856196624736,21.3534701201081,0.));
#828=CARTESIAN_POINT('',(78.2856196624736,21.3534701201081,3.));
#829=CARTESIAN_POINT('',(78.2856196624736,21.3534701201081,0.));
#830=CARTESIAN_POINT('',(93.2856196624736,21.3534701201081,3.));
#831=CARTESIAN_POINT('',(78.2856196624736,21.3534701201081,3.));
#832=CARTESIAN_POINT('',(93.2856196624736,21.3534701201081,0.));
#833=CARTESIAN_POINT('Origin',(93.2856196624736,36.3534701201081,0.));
#834=CARTESIAN_POINT('',(93.2856196624736,36.3534701201081,0.));
#835=CARTESIAN_POINT('',(93.2856196624736,21.3534701201081,0.));
#836=CARTESIAN_POINT('',(93.2856196624736,36.3534701201081,3.));
#837=CARTESIAN_POINT('',(93.2856196624736,21.3534701201081,3.));
#838=CARTESIAN_POINT('',(93.2856196624736,36.3534701201081,0.));
#839=CARTESIAN_POINT('Origin',(78.2856196624736,36.3534701201081,0.));
#840=CARTESIAN_POINT('',(78.2856196624736,36.3534701201081,0.));
#841=CARTESIAN_POINT('',(93.2856196624736,36.3534701201081,0.));
#842=CARTESIAN_POINT('',(78.2856196624736,36.3534701201081,3.));
#843=CARTESIAN_POINT('',(93.2856196624736,36.3534701201081,3.));
#844=CARTESIAN_POINT('',(78.2856196624736,36.3534701201081,0.));
#845=CARTESIAN_POINT('Origin',(78.2856196624736,21.3534701201081,0.));
#846=CARTESIAN_POINT('',(78.2856196624736,36.3534701201081,0.));
#847=CARTESIAN_POINT('',(78.2856196624736,36.3534701201081,3.));
#848=CARTESIAN_POINT('Origin',(36.2819907571443,20.8039492759051,0.));
#849=CARTESIAN_POINT('',(36.2819907571443,20.8039492759051,0.));
#850=CARTESIAN_POINT('',(21.2819907571443,20.8039492759051,0.));
#851=CARTESIAN_POINT('',(21.2819907571443,20.8039492759051,0.));
#852=CARTESIAN_POINT('',(21.2819907571443,20.8039492759051,3.));
#853=CARTESIAN_POINT('',(21.2819907571443,20.8039492759051,0.));
#854=CARTESIAN_POINT('',(36.2819907571443,20.8039492759051,3.));
#855=CARTESIAN_POINT('',(21.2819907571443,20.8039492759051,3.));
#856=CARTESIAN_POINT('',(36.2819907571443,20.8039492759051,0.));
#857=CARTESIAN_POINT('Origin',(36.2819907571443,35.8039492759051,0.));
#858=CARTESIAN_POINT('',(36.2819907571443,35.8039492759051,0.));
#859=CARTESIAN_POINT('',(36.2819907571443,20.8039492759051,0.));
#860=CARTESIAN_POINT('',(36.2819907571443,35.8039492759051,3.));
#861=CARTESIAN_POINT('',(36.2819907571443,20.8039492759051,3.));
#862=CARTESIAN_POINT('',(36.2819907571443,35.8039492759051,0.));
#863=CARTESIAN_POINT('Origin',(21.2819907571443,35.8039492759051,0.));
#864=CARTESIAN_POINT('',(21.2819907571443,35.8039492759051,0.));
#865=CARTESIAN_POINT('',(36.2819907571443,35.8039492759051,0.));
#866=CARTESIAN_POINT('',(21.2819907571443,35.8039492759051,3.));
#867=CARTESIAN_POINT('',(36.2819907571443,35.8039492759051,3.));
#868=CARTESIAN_POINT('',(21.2819907571443,35.8039492759051,0.));
#869=CARTESIAN_POINT('Origin',(21.2819907571443,20.8039492759051,0.));
#870=CARTESIAN_POINT('',(21.2819907571443,35.8039492759051,0.));
#871=CARTESIAN_POINT('',(21.2819907571443,35.8039492759051,3.));
#872=CARTESIAN_POINT('Origin',(113.500001691282,66.5000009909272,0.));
#873=CARTESIAN_POINT('',(113.500001691282,66.5000009909272,0.));
#874=CARTESIAN_POINT('',(0.,66.5000009909272,0.));
#875=CARTESIAN_POINT('',(113.500001691282,66.5000009909272,0.));
#876=CARTESIAN_POINT('',(0.,66.5000009909272,3.));
#877=CARTESIAN_POINT('',(0.,66.5000009909272,0.));
#878=CARTESIAN_POINT('',(113.500001691282,66.5000009909272,3.));
#879=CARTESIAN_POINT('',(113.500001691282,66.5000009909272,3.));
#880=CARTESIAN_POINT('',(113.500001691282,66.5000009909272,0.));
#881=CARTESIAN_POINT('Origin',(113.500001691282,0.,0.));
#882=CARTESIAN_POINT('',(113.500001691282,0.,0.));
#883=CARTESIAN_POINT('',(113.500001691282,0.,0.));
#884=CARTESIAN_POINT('',(113.500001691282,0.,3.));
#885=CARTESIAN_POINT('',(113.500001691282,0.,3.));
#886=CARTESIAN_POINT('',(113.500001691282,0.,0.));
#887=CARTESIAN_POINT('Origin',(0.,0.,0.));
#888=CARTESIAN_POINT('',(0.,0.,0.));
#889=CARTESIAN_POINT('',(0.,0.,0.));
#890=CARTESIAN_POINT('',(0.,0.,3.));
#891=CARTESIAN_POINT('',(0.,0.,3.));
#892=CARTESIAN_POINT('',(0.,0.,0.));
#893=CARTESIAN_POINT('Origin',(0.,66.5000009909272,0.));
#894=CARTESIAN_POINT('',(0.,66.5000009909272,0.));
#895=CARTESIAN_POINT('',(0.,66.5000009909272,3.));
#896=CARTESIAN_POINT('Origin',(56.7500008456409,33.2500004954636,3.));
#897=CARTESIAN_POINT('Origin',(56.7500008456409,33.2500004954636,0.));
#898=CARTESIAN_POINT('',(-8.6,-7.,33.));
#899=CARTESIAN_POINT('Origin',(0.,0.,0.));
#900=UNCERTAINTY_MEASURE_WITH_UNIT(LENGTH_MEASURE(0.01),#906,
'DISTANCE_ACCURACY_VALUE',
'Maximum model space distance between geometric entities at asserted c
onnectivities');
#901=UNCERTAINTY_MEASURE_WITH_UNIT(LENGTH_MEASURE(0.01),#906,
'DISTANCE_ACCURACY_VALUE',
'Maximum model space distance between geometric entities at asserted c
onnectivities');
#902=UNCERTAINTY_MEASURE_WITH_UNIT(LENGTH_MEASURE(0.01),#906,
'DISTANCE_ACCURACY_VALUE',
'Maximum model space distance between geometric entities at asserted c
onnectivities');
#903=(
GEOMETRIC_REPRESENTATION_CONTEXT(3)
GLOBAL_UNCERTAINTY_ASSIGNED_CONTEXT((#900))
GLOBAL_UNIT_ASSIGNED_CONTEXT((#906,#908,#909))
REPRESENTATION_CONTEXT('','3D')
);
#904=(
GEOMETRIC_REPRESENTATION_CONTEXT(3)
GLOBAL_UNCERTAINTY_ASSIGNED_CONTEXT((#901))
GLOBAL_UNIT_ASSIGNED_CONTEXT((#906,#908,#909))
REPRESENTATION_CONTEXT('','3D')
);
#905=(
GEOMETRIC_REPRESENTATION_CONTEXT(3)
GLOBAL_UNCERTAINTY_ASSIGNED_CONTEXT((#902))
GLOBAL_UNIT_ASSIGNED_CONTEXT((#906,#908,#909))
REPRESENTATION_CONTEXT('','3D')
);
#906=(
LENGTH_UNIT()
NAMED_UNIT(*)
SI_UNIT(.MILLI.,.METRE.)
);
#907=(
LENGTH_UNIT()
NAMED_UNIT(*)
SI_UNIT($,.METRE.)
);
#908=(
NAMED_UNIT(*)
PLANE_ANGLE_UNIT()
SI_UNIT($,.RADIAN.)
);
#909=(
NAMED_UNIT(*)
SI_UNIT($,.STERADIAN.)
SOLID_ANGLE_UNIT()
);
#910=SHAPE_DEFINITION_REPRESENTATION(#912,#915);
#911=SHAPE_DEFINITION_REPRESENTATION(#913,#916);
#912=PRODUCT_DEFINITION_SHAPE('',$,#918);
#913=PRODUCT_DEFINITION_SHAPE('',$,#919);
#914=PRODUCT_DEFINITION_SHAPE($,$,#17);
#915=SHAPE_REPRESENTATION('',(#572,#608),#903);
#916=SHAPE_REPRESENTATION('',(#573),#904);
#917=PRODUCT_DEFINITION_CONTEXT('part definition',#925,'design');
#918=PRODUCT_DEFINITION('2026-08-29-16-13-29-375','bottoom (Assembly)',
#920,#917);
#919=PRODUCT_DEFINITION('2026-08-29-19-41-47-095','top',#921,#917);
#920=PRODUCT_DEFINITION_FORMATION('',$,#927);
#921=PRODUCT_DEFINITION_FORMATION('',$,#928);
#922=PRODUCT_RELATED_PRODUCT_CATEGORY('bottoom (Assembly)',
'bottoom (Assembly)',(#927));
#923=PRODUCT_RELATED_PRODUCT_CATEGORY('top','top',(#928));
#924=APPLICATION_PROTOCOL_DEFINITION('international standard',
'automotive_design',2009,#925);
#925=APPLICATION_CONTEXT(
'Core Data for Automotive Mechanical Design Process');
#926=PRODUCT_CONTEXT('part definition',#925,'mechanical');
#927=PRODUCT('2026-08-29-16-13-29-375','bottoom (Assembly)',$,(#926));
#928=PRODUCT('2026-08-29-19-41-47-095','top',$,(#926));
#929=PRESENTATION_STYLE_ASSIGNMENT((#932));
#930=PRESENTATION_STYLE_ASSIGNMENT((#933));
#931=PRESENTATION_STYLE_ASSIGNMENT((NULL_STYLE(.NULL.)));
#932=SURFACE_STYLE_USAGE(.BOTH.,#934);
#933=SURFACE_STYLE_USAGE(.BOTH.,#935);
#934=SURFACE_SIDE_STYLE('',(#936));
#935=SURFACE_SIDE_STYLE('',(#937));
#936=SURFACE_STYLE_FILL_AREA(#938);
#937=SURFACE_STYLE_FILL_AREA(#939);
#938=FILL_AREA_STYLE('Steel - Satin',(#940));
#939=FILL_AREA_STYLE('Plastic - Translucent Glossy (Red)',(#941));
#940=FILL_AREA_STYLE_COLOUR('Steel - Satin',#942);
#941=FILL_AREA_STYLE_COLOUR('Plastic - Translucent Glossy (Red)',#943);
#942=COLOUR_RGB('Steel - Satin',0.627450980392157,0.627450980392157,0.627450980392157);
#943=COLOUR_RGB('Plastic - Translucent Glossy (Red)',0.768627450980392,
0.207843137254902,0.152941176470588);
ENDSEC;
END-ISO-10303-21;
